<?xml version="1.0" encoding="UTF-8" standalone="no"?>
<!DOCTYPE svg PUBLIC "-//W3C//DTD SVG 1.1//EN"
 "http://www.w3.org/Graphics/SVG/1.1/DTD/svg11.dtd">
<!-- Generated by graphviz version 2.38.0 (20140413.2041)
 -->
<!-- Title: %3 Pages: 1 -->
<svg width="396pt" height="261pt"
 viewBox="0.00 0.00 395.71 261.28" xmlns="http://www.w3.org/2000/svg" xmlns:xlink="http://www.w3.org/1999/xlink">
<g id="graph0" class="graph" transform="scale(1 1) rotate(0) translate(4 257.279)">
<title>%3</title>
<polygon fill="white" stroke="none" points="-4,4 -4,-257.279 391.713,-257.279 391.713,4 -4,4"/>
<!-- In0 -->
<g id="node1" class="node"><title>In0</title>
<polygon fill="lightgray" stroke="black" points="108.713,-189.894 79.7132,-189.894 79.7132,-171.894 108.713,-171.894 108.713,-189.894"/>
<text text-anchor="middle" x="94.2132" y="-178.694" font-family="Times New Roman,serif" font-size="9.00">In0</text>
</g>
<!-- act1 -->
<g id="node5" class="node"><title>act1</title>
<ellipse fill="lightblue" stroke="black" cx="279.213" cy="-103.882" rx="22.7556" ry="22.7556"/>
<text text-anchor="middle" x="279.213" y="-101.682" font-family="Times New Roman,serif" font-size="9.00">act1</text>
</g>
<!-- In0&#45;&gt;act1 -->
<g id="edge1" class="edge"><title>In0&#45;&gt;act1</title>
<path fill="none" stroke="red" stroke-width="0.336025" stroke-dasharray="1,5" d="M108.73,-174.008C138.869,-161.788 208.77,-133.445 249.083,-117.099"/>
<polygon fill="red" stroke="red" stroke-width="0.336025" points="250.461,-120.317 258.413,-113.316 247.83,-113.83 250.461,-120.317"/>
</g>
<!-- act2 -->
<g id="node6" class="node"><title>act2</title>
<ellipse fill="lightblue" stroke="black" cx="179.213" cy="-22.6274" rx="22.7556" ry="22.7556"/>
<text text-anchor="middle" x="179.213" y="-20.4274" font-family="Times New Roman,serif" font-size="9.00">act2</text>
</g>
<!-- In0&#45;&gt;act2 -->
<g id="edge2" class="edge"><title>In0&#45;&gt;act2</title>
<path fill="none" stroke="red" stroke-width="0.69974" stroke-dasharray="1,5" d="M91.1441,-171.854C84.9411,-154.189 72.8351,-111.19 89.2132,-81.2548 101.744,-58.3511 127.692,-43.2151 148.52,-34.2274"/>
<polygon fill="red" stroke="red" stroke-width="0.69974" points="149.997,-37.4055 157.957,-30.4134 147.374,-30.9155 149.997,-37.4055"/>
</g>
<!-- 494 -->
<g id="node8" class="node"><title>494</title>
<ellipse fill="white" stroke="black" cx="21.2132" cy="-103.882" rx="21.4286" ry="21.4286"/>
<text text-anchor="middle" x="21.2132" y="-101.682" font-family="Times New Roman,serif" font-size="9.00">494</text>
</g>
<!-- In0&#45;&gt;494 -->
<g id="edge13" class="edge"><title>In0&#45;&gt;494</title>
<path fill="none" stroke="red" stroke-width="0.12631" d="M86.4009,-171.867C76.1275,-161.31 57.6628,-142.337 43.0015,-127.271"/>
<polygon fill="red" stroke="red" stroke-width="0.12631" points="45.2274,-124.54 35.7448,-119.814 40.2108,-129.422 45.2274,-124.54"/>
</g>
<!-- 414 -->
<g id="node10" class="node"><title>414</title>
<ellipse fill="white" stroke="black" cx="119.213" cy="-103.882" rx="21.4286" ry="21.4286"/>
<text text-anchor="middle" x="119.213" y="-101.682" font-family="Times New Roman,serif" font-size="9.00">414</text>
</g>
<!-- In0&#45;&gt;414 -->
<g id="edge10" class="edge"><title>In0&#45;&gt;414</title>
<path fill="none" stroke="green" stroke-width="0.277505" stroke-dasharray="1,5" d="M96.8886,-171.867C99.9092,-162.804 104.997,-147.537 109.554,-133.865"/>
<polygon fill="green" stroke="green" stroke-width="0.277505" points="112.899,-134.897 112.741,-124.303 106.258,-132.684 112.899,-134.897"/>
</g>
<!-- In1 -->
<g id="node2" class="node"><title>In1</title>
<polygon fill="lightgray" stroke="black" points="387.713,-112.882 358.713,-112.882 358.713,-94.8823 387.713,-94.8823 387.713,-112.882"/>
<text text-anchor="middle" x="373.213" y="-101.682" font-family="Times New Roman,serif" font-size="9.00">In1</text>
</g>
<!-- In1&#45;&gt;act2 -->
<g id="edge3" class="edge"><title>In1&#45;&gt;act2</title>
<path fill="none" stroke="green" stroke-width="0.319616" d="M363.78,-94.6877C358.336,-90.2653 351.202,-84.968 344.213,-81.2548 300.382,-57.9658 245.197,-40.9103 211.064,-31.6309"/>
<polygon fill="green" stroke="green" stroke-width="0.319616" points="211.746,-28.1907 201.182,-29.0024 209.947,-34.9555 211.746,-28.1907"/>
</g>
<!-- In3 -->
<g id="node3" class="node"><title>In3</title>
<polygon fill="lightgray" stroke="black" points="306.713,-253.279 277.713,-253.279 277.713,-235.279 306.713,-235.279 306.713,-253.279"/>
<text text-anchor="middle" x="292.213" y="-242.079" font-family="Times New Roman,serif" font-size="9.00">In3</text>
</g>
<!-- In3&#45;&gt;act1 -->
<g id="edge4" class="edge"><title>In3&#45;&gt;act1</title>
<path fill="none" stroke="green" stroke-width="0.287232" stroke-dasharray="1,5" d="M291.439,-235.036C289.661,-216.11 285.209,-168.71 282.197,-136.648"/>
<polygon fill="green" stroke="green" stroke-width="0.287232" points="285.657,-136.055 281.237,-126.426 278.688,-136.71 285.657,-136.055"/>
</g>
<!-- In3&#45;&gt;act2 -->
<g id="edge5" class="edge"><title>In3&#45;&gt;act2</title>
<path fill="none" stroke="green" stroke-width="0.197849" d="M296.618,-235.018C309.487,-209.639 344.097,-131.492 311.213,-81.2548 289.312,-47.7963 243.262,-33.6518 211.781,-27.7475"/>
<polygon fill="green" stroke="green" stroke-width="0.197849" points="212.163,-24.2625 201.719,-26.0451 210.995,-31.1644 212.163,-24.2625"/>
</g>
<!-- 67 -->
<g id="node7" class="node"><title>67</title>
<ellipse fill="white" stroke="black" cx="246.213" cy="-180.894" rx="18.2703" ry="18.2703"/>
<text text-anchor="middle" x="246.213" y="-178.694" font-family="Times New Roman,serif" font-size="9.00">67</text>
</g>
<!-- In3&#45;&gt;67 -->
<g id="edge8" class="edge"><title>In3&#45;&gt;67</title>
<path fill="none" stroke="green" stroke-width="0.677252" d="M286.2,-235.254C280.358,-227.459 271.213,-215.255 263.142,-204.485"/>
<polygon fill="green" stroke="green" stroke-width="0.677252" points="265.781,-202.171 256.984,-196.267 260.18,-206.368 265.781,-202.171"/>
</g>
<!-- In4 -->
<g id="node4" class="node"><title>In4</title>
<polygon fill="lightgray" stroke="black" points="201.713,-189.894 172.713,-189.894 172.713,-171.894 201.713,-171.894 201.713,-189.894"/>
<text text-anchor="middle" x="187.213" y="-178.694" font-family="Times New Roman,serif" font-size="9.00">In4</text>
</g>
<!-- In4&#45;&gt;act1 -->
<g id="edge6" class="edge"><title>In4&#45;&gt;act1</title>
<path fill="none" stroke="red" stroke-width="0.917192" d="M197.059,-171.867C210.545,-160.871 235.233,-140.742 254.037,-125.41"/>
<polygon fill="red" stroke="red" stroke-width="0.917192" points="256.404,-127.996 261.942,-118.964 251.98,-122.571 256.404,-127.996"/>
</g>
<!-- In4&#45;&gt;act2 -->
<g id="edge7" class="edge"><title>In4&#45;&gt;act2</title>
<path fill="none" stroke="red" stroke-width="0.253999" stroke-dasharray="1,5" d="M191.683,-171.886C197.085,-161.708 205.865,-143.423 209.213,-126.51 213.119,-106.779 213.994,-100.792 209.213,-81.2548 206.619,-70.6549 201.701,-59.836 196.586,-50.4777"/>
<polygon fill="red" stroke="red" stroke-width="0.253999" points="199.524,-48.5678 191.484,-41.6685 193.467,-52.0761 199.524,-48.5678"/>
</g>
<!-- 720 -->
<g id="node9" class="node"><title>720</title>
<ellipse fill="white" stroke="black" cx="179.213" cy="-103.882" rx="21.4286" ry="21.4286"/>
<text text-anchor="middle" x="179.213" y="-101.682" font-family="Times New Roman,serif" font-size="9.00">720</text>
</g>
<!-- In4&#45;&gt;720 -->
<g id="edge15" class="edge"><title>In4&#45;&gt;720</title>
<path fill="none" stroke="green" stroke-width="0.263945" d="M186.357,-171.867C185.428,-163.159 183.889,-148.723 182.476,-135.478"/>
<polygon fill="green" stroke="green" stroke-width="0.263945" points="185.926,-134.816 181.385,-125.243 178.965,-135.558 185.926,-134.816"/>
</g>
<!-- In4&#45;&gt;414 -->
<g id="edge12" class="edge"><title>In4&#45;&gt;414</title>
<path fill="none" stroke="green" stroke-width="0.215019" d="M179.936,-171.867C170.425,-161.375 153.376,-142.568 139.759,-127.547"/>
<polygon fill="green" stroke="green" stroke-width="0.215019" points="142.319,-125.16 133.01,-120.102 137.133,-129.861 142.319,-125.16"/>
</g>
<!-- 67&#45;&gt;act1 -->
<g id="edge9" class="edge"><title>67&#45;&gt;act1</title>
<path fill="none" stroke="red" stroke-width="0.421742" stroke-dasharray="1,5" d="M253.374,-163.618C257.166,-154.997 261.94,-144.146 266.349,-134.123"/>
<polygon fill="red" stroke="red" stroke-width="0.421742" points="269.598,-135.43 270.421,-124.867 263.191,-132.611 269.598,-135.43"/>
</g>
<!-- 494&#45;&gt;act2 -->
<g id="edge14" class="edge"><title>494&#45;&gt;act2</title>
<path fill="none" stroke="red" stroke-width="0.857882" d="M38.7849,-91.476C44.2872,-88.0537 50.4331,-84.3812 56.2132,-81.2548 87.1592,-64.5165 123.812,-47.7151 149.009,-36.6093"/>
<polygon fill="red" stroke="red" stroke-width="0.857882" points="150.639,-39.7164 158.397,-32.5011 147.833,-33.3035 150.639,-39.7164"/>
</g>
<!-- 720&#45;&gt;act2 -->
<g id="edge16" class="edge"><title>720&#45;&gt;act2</title>
<path fill="none" stroke="green" stroke-width="0.643635" d="M179.213,-82.4722C179.213,-74.2968 179.213,-64.6816 179.213,-55.62"/>
<polygon fill="green" stroke="green" stroke-width="0.643635" points="182.713,-55.3562 179.213,-45.3562 175.713,-55.3562 182.713,-55.3562"/>
</g>
<!-- 414&#45;&gt;act2 -->
<g id="edge11" class="edge"><title>414&#45;&gt;act2</title>
<path fill="none" stroke="green" stroke-width="0.479798" d="M131.645,-86.4606C139.789,-75.7036 150.599,-61.4242 159.856,-49.1966"/>
<polygon fill="green" stroke="green" stroke-width="0.479798" points="162.719,-51.2131 165.965,-41.1275 157.138,-46.9879 162.719,-51.2131"/>
</g>
</g>
</svg>
