<?xml version="1.0" encoding="UTF-8" standalone="no"?>
<!DOCTYPE svg PUBLIC "-//W3C//DTD SVG 1.1//EN"
 "http://www.w3.org/Graphics/SVG/1.1/DTD/svg11.dtd">
<!-- Generated by graphviz version 2.38.0 (20140413.2041)
 -->
<!-- Title: %3 Pages: 1 -->
<svg width="154pt" height="222pt"
 viewBox="0.00 0.00 154.32 222.45" xmlns="http://www.w3.org/2000/svg" xmlns:xlink="http://www.w3.org/1999/xlink">
<g id="graph0" class="graph" transform="scale(1 1) rotate(0) translate(4 218.451)">
<title>%3</title>
<polygon fill="white" stroke="none" points="-4,4 -4,-218.451 150.317,-218.451 150.317,4 -4,4"/>
<!-- A -->
<g id="node1" class="node"><title>A</title>
<polygon fill="lightgray" stroke="black" points="51.2857,-214.451 28.2857,-214.451 28.2857,-196.451 51.2857,-196.451 51.2857,-214.451"/>
<text text-anchor="middle" x="39.7857" y="-203.251" font-family="Times New Roman,serif" font-size="9.00">A</text>
</g>
<!-- A XOR B -->
<g id="node3" class="node"><title>A XOR B</title>
<ellipse fill="lightblue" stroke="black" cx="72.7857" cy="-37.4767" rx="37.4533" ry="37.4533"/>
<text text-anchor="middle" x="72.7857" y="-35.2767" font-family="Times New Roman,serif" font-size="9.00">A XOR B</text>
</g>
<!-- A&#45;&gt;A XOR B -->
<g id="edge1" class="edge"><title>A&#45;&gt;A XOR B</title>
<path fill="none" stroke="green" stroke-width="0.276204" stroke-dasharray="1,5" d="M30.8191,-196.39C22.5096,-188.263 10.7131,-174.886 5.78575,-160.451 -1.32086,-139.631 -2.23244,-131.439 5.78575,-110.953 12.1475,-94.6998 24.0538,-79.9063 36.0853,-67.9842"/>
<polygon fill="green" stroke="green" stroke-width="0.276204" points="38.674,-70.3537 43.5443,-60.9446 33.8694,-65.2628 38.674,-70.3537"/>
</g>
<!-- 3090 -->
<g id="node4" class="node"><title>3090</title>
<ellipse fill="white" stroke="black" cx="39.7857" cy="-135.702" rx="25" ry="25"/>
<text text-anchor="middle" x="39.7857" y="-133.502" font-family="Times New Roman,serif" font-size="9.00">3090</text>
</g>
<!-- A&#45;&gt;3090 -->
<g id="edge6" class="edge"><title>A&#45;&gt;3090</title>
<path fill="none" stroke="green" stroke-width="0.270779" d="M39.7857,-196.413C39.7857,-189.978 39.7857,-180.48 39.7857,-170.944"/>
<polygon fill="green" stroke="green" stroke-width="0.270779" points="43.2858,-170.723 39.7857,-160.723 36.2858,-170.723 43.2858,-170.723"/>
</g>
<!-- 2959 -->
<g id="node5" class="node"><title>2959</title>
<ellipse fill="white" stroke="black" cx="106.786" cy="-135.702" rx="25" ry="25"/>
<text text-anchor="middle" x="106.786" y="-133.502" font-family="Times New Roman,serif" font-size="9.00">2959</text>
</g>
<!-- A&#45;&gt;2959 -->
<g id="edge3" class="edge"><title>A&#45;&gt;2959</title>
<path fill="none" stroke="green" stroke-width="0.280167" d="M47.7346,-196.413C56.2889,-187.763 70.3156,-173.58 82.5521,-161.207"/>
<polygon fill="green" stroke="green" stroke-width="0.280167" points="85.3317,-163.373 89.8748,-153.802 80.3545,-158.451 85.3317,-163.373"/>
</g>
<!-- B -->
<g id="node2" class="node"><title>B</title>
<polygon fill="lightgray" stroke="black" points="144.286,-214.451 121.286,-214.451 121.286,-196.451 144.286,-196.451 144.286,-214.451"/>
<text text-anchor="middle" x="132.786" y="-203.251" font-family="Times New Roman,serif" font-size="9.00">B</text>
</g>
<!-- B&#45;&gt;A XOR B -->
<g id="edge2" class="edge"><title>B&#45;&gt;A XOR B</title>
<path fill="none" stroke="green" stroke-width="0.592189" d="M135.834,-196.343C141.603,-179.678 152.534,-140.645 140.786,-110.953 134.32,-94.6113 122.234,-79.7998 110.024,-67.8879"/>
<polygon fill="green" stroke="green" stroke-width="0.592189" points="112.164,-65.0987 102.454,-60.8581 107.4,-70.2279 112.164,-65.0987"/>
</g>
<!-- B&#45;&gt;2959 -->
<g id="edge5" class="edge"><title>B&#45;&gt;2959</title>
<path fill="none" stroke="red" stroke-width="0.584193" d="M129.701,-196.413C127.003,-189.382 122.901,-178.695 118.911,-168.296"/>
<polygon fill="red" stroke="red" stroke-width="0.584193" points="122.171,-167.022 115.32,-158.94 115.635,-169.53 122.171,-167.022"/>
</g>
<!-- 3090&#45;&gt;A XOR B -->
<g id="edge7" class="edge"><title>3090&#45;&gt;A XOR B</title>
<path fill="none" stroke="red" stroke-width="0.284851" d="M47.6063,-111.898C50.6106,-103.138 54.1515,-92.8126 57.614,-82.7164"/>
<polygon fill="red" stroke="red" stroke-width="0.284851" points="60.9561,-83.7599 60.8895,-73.1652 54.3347,-81.489 60.9561,-83.7599"/>
</g>
<!-- 2959&#45;&gt;A XOR B -->
<g id="edge4" class="edge"><title>2959&#45;&gt;A XOR B</title>
<path fill="none" stroke="green" stroke-width="1.98201" d="M98.7282,-111.898C95.6329,-103.138 91.9847,-92.8126 88.4173,-82.7164"/>
<polygon fill="green" stroke="green" stroke-width="1.98201" points="91.6742,-81.4279 85.0425,-73.1652 85.074,-83.76 91.6742,-81.4279"/>
</g>
</g>
</svg>
